<svg id="Layer_1" data-name="Layer 1" xmlns="http://www.w3.org/2000/svg" viewBox="0 0 597.52 51.46"><defs><style>.cls-1{fill:#231f20;}</style></defs><path class="cls-1" d="M52.22,59.21H37.56l-2.08-6.44H16.18l-2.07,6.44H0L17.5,10H34.1ZM19.78,41.36h12L28.08,30c-1.06-3.23-1.84-5.83-2.35-7.82-1,3.51-1.8,6.11-2.35,7.82Z" transform="translate(0 -8.85)"/><path class="cls-1" d="M84.32,27.94V10H98.15V59.21H84.32v-19H67.37v19H53.54V10H67.37v18Z" transform="translate(0 -8.85)"/><path class="cls-1" d="M139.51,10h21.16V59.21H147.53v-14q0-13.54.42-23Q146.5,27.95,145,33.13l-7.12,26.08H126.71l-7.12-26.08q-1.45-5.19-2.91-10.93.42,9.48.42,23v14H104V10h21.16l4.7,18.67q1.74,7.13,2.49,10.59.76-3.47,2.49-10.59Z" transform="translate(0 -8.85)"/><path class="cls-1" d="M205.35,10V22.27h-25V28.7h22.82V40.32H180.31V46.9h25V59.21H166.48V10Z" transform="translate(0 -8.85)"/><path class="cls-1" d="M245.86,13a19.63,19.63,0,0,1,8.47,8.57,28.6,28.6,0,0,1,2.77,13,28.57,28.57,0,0,1-2.77,13,19.6,19.6,0,0,1-8.47,8.58q-5.72,3.07-14.29,3.08H210.06V10h21.51Q240.15,10,245.86,13ZM231.3,47.59q5.32,0,8.37-3.08t3-9.93q0-6.84-3-9.92t-8.37-3.08h-7.4v26Z" transform="translate(0 -8.85)"/><path class="cls-1" d="M316.65,10V22.27h-25V28.7h22.83V40.32H291.61V46.9h25V59.21H277.78V10Z" transform="translate(0 -8.85)"/><path class="cls-1" d="M335.2,10V46.9H357V59.21H321.37V10Z" transform="translate(0 -8.85)"/><path class="cls-1" d="M384.38,58.13A16.1,16.1,0,0,1,377,52.05a16.61,16.61,0,0,1-2.46-9h13.28A7.33,7.33,0,0,0,389,47.27a5.34,5.34,0,0,0,2.94,2,16.4,16.4,0,0,0,4.46.52q7.6,0,7.61-4.43a3.57,3.57,0,0,0-.69-2.31A4.94,4.94,0,0,0,401,41.64a29.22,29.22,0,0,0-4.74-1L392.4,40q-17.08-2.77-17.09-15.91a14.19,14.19,0,0,1,2.22-7.82,14.68,14.68,0,0,1,6.74-5.43,28.29,28.29,0,0,1,11.24-2q9.83,0,15.22,4.12t5.81,12.14h-13a5.46,5.46,0,0,0-2-4.36q-1.83-1.38-5.84-1.38A8.4,8.4,0,0,0,391,20.44a3.44,3.44,0,0,0-1.56,3,3.62,3.62,0,0,0,.77,2.38,5,5,0,0,0,2.28,1.49,23.34,23.34,0,0,0,4.15,1l4.08.69a36.74,36.74,0,0,1,10,2.94,13.36,13.36,0,0,1,5.74,5,14.12,14.12,0,0,1,1.87,7.44,14.39,14.39,0,0,1-2.7,8.95A15.78,15.78,0,0,1,408,58.58a34.09,34.09,0,0,1-11.45,1.73A29.87,29.87,0,0,1,384.38,58.13Z" transform="translate(0 -8.85)"/><path class="cls-1" d="M452.49,27.94V10h13.83V59.21H452.49v-19H435.54v19H421.71V10h13.83v18Z" transform="translate(0 -8.85)"/><path class="cls-1" d="M519.87,59.21H505.21l-2.08-6.44H483.84l-2.08,6.44H467.65L485.15,10h16.6ZM487.43,41.36h12L495.73,30c-1.06-3.23-1.84-5.83-2.35-7.82-1,3.51-1.8,6.11-2.35,7.82Z" transform="translate(0 -8.85)"/><path class="cls-1" d="M556.74,10h21.17V59.21H564.77v-14q0-13.54.41-23-1.45,5.75-2.9,10.93l-7.13,26.08H544l-7.13-26.08q-1.44-5.19-2.9-10.93.42,9.48.41,23v14H521.19V10h21.17l4.7,18.67q1.73,7.13,2.49,10.59.76-3.47,2.49-10.59Z" transform="translate(0 -8.85)"/><path class="cls-1" d="M597.52,59.21H583.68V10h13.84Z" transform="translate(0 -8.85)"/></svg>